<svg width="0" height="0" class="hidden">
  <symbol fill="none" xmlns="http://www.w3.org/2000/svg" viewBox="0 0 16 20" id="backpack">
    <path d="M13 2.14V0H10V2H6V0H3V2.14C1.28 2.59 0 4.14 0 6V18C0 19.1 0.9 20 2 20H14C15.1 20 16 19.1 16 18V6C16 4.14 14.72 2.59 13 2.14ZM14 18H2V6C2 4.9 2.9 4 4 4H12C13.1 4 14 4.9 14 6V18ZM12.5 10V14H10.5V12H3.5V10H12.5Z" fill="#4D12EE"></path>
  </symbol>
  <symbol fill="none" xmlns="http://www.w3.org/2000/svg" viewBox="0 0 20 19" id="card-giftcard">
    <path d="M18 4.00004H15.82C15.93 3.69004 16 3.35004 16 3.00004C16.0011 2.35486 15.7939 1.72657 15.4092 1.20863C15.0245 0.690689 14.4829 0.310766 13.8649 0.125376C13.2469 -0.0600139 12.5856 -0.0409654 11.9794 0.179688C11.3731 0.400342 10.8542 0.810811 10.5 1.35004L10 2.02004L9.5 1.34004C8.96 0.540037 8.05 3.75273e-05 7 3.75273e-05C5.34 3.75273e-05 4 1.34004 4 3.00004C4 3.35004 4.07 3.69004 4.18 4.00004H2C0.89 4.00004 0.00999999 4.89004 0.00999999 6.00004L0 17C0 18.11 0.89 19 2 19H18C19.11 19 20 18.11 20 17V6.00004C20 4.89004 19.11 4.00004 18 4.00004ZM13 2.00004C13.55 2.00004 14 2.45004 14 3.00004C14 3.55004 13.55 4.00004 13 4.00004C12.45 4.00004 12 3.55004 12 3.00004C12 2.45004 12.45 2.00004 13 2.00004ZM7 2.00004C7.55 2.00004 8 2.45004 8 3.00004C8 3.55004 7.55 4.00004 7 4.00004C6.45 4.00004 6 3.55004 6 3.00004C6 2.45004 6.45 2.00004 7 2.00004ZM18 17H2V15H18V17ZM18 12H2V6.00004H7.08L5 8.83004L6.62 10L10 5.40004L13.38 10L15 8.83004L12.92 6.00004H18V12Z" fill="#FF7235"></path>
  </symbol>
  <symbol fill="none" xmlns="http://www.w3.org/2000/svg" viewBox="0 0 20 20" id="card-membership">
    <path d="M18 0H2C0.89 0 0 0.89 0 2V13C0 14.11 0.89 15 2 15H6V20L10 18L14 20V15H18C19.11 15 20 14.11 20 13V2C20 0.89 19.11 0 18 0ZM18 13H2V11H18V13ZM18 8H2V3C2 2.45 2.45 2 3 2H17C17.55 2 18 2.45 18 3V8Z" fill="#4D12EE"></path>
  </symbol>
  <symbol fill="none" xmlns="http://www.w3.org/2000/svg" viewBox="0 0 20 19" id="card-travel">
    <path d="M18 4H15V2C15 0.89 14.11 0 13 0H7C5.89 0 5 0.89 5 2V4H2C0.89 4 0 4.89 0 6V17C0 18.11 0.89 19 2 19H18C19.11 19 20 18.11 20 17V6C20 4.89 19.11 4 18 4ZM7 2H13V4H7V2ZM18 17H2V15H18V17ZM18 12H2V6H5V8H7V6H13V8H15V6H18V12Z" fill="#3EC1F3"></path>
  </symbol>
  <symbol fill="none" xmlns="http://www.w3.org/2000/svg" viewBox="0 0 24 16" id="cloud">
    <path d="M19.35 6.04C19.0141 4.33772 18.0976 2.80486 16.7571 1.70325C15.4165 0.601633 13.7351 -0.000392242 12 1.91737e-07C9.11 1.91737e-07 6.6 1.64 5.35 4.04C3.88023 4.19883 2.52101 4.89521 1.53349 5.99532C0.545971 7.09543 -0.000171702 8.52168 4.04928e-08 10C4.04928e-08 13.31 2.69 16 6 16H19C21.76 16 24 13.76 24 11C24 8.36 21.95 6.22 19.35 6.04ZM19 14H6C3.79 14 2 12.21 2 10C2 7.79 3.79 6 6 6H6.71C7.37 3.69 9.48 2 12 2C15.04 2 17.5 4.46 17.5 7.5V8H19C20.66 8 22 9.34 22 11C22 12.66 20.66 14 19 14Z" fill="#E2598B"></path>
  </symbol>
  <symbol fill="none" xmlns="http://www.w3.org/2000/svg" viewBox="0 0 112 40" id="logo">
    <circle cx="20" cy="20" r="20" fill="#FF7235"></circle>
    <path d="M18.176 26H14.384L18.728 19.904L14.648 13.832H18.536L20.504 17.456L22.688 13.832H26.528L22.16 19.928L26.216 26H22.4L20.36 22.352L18.176 26Z" fill="white"></path>
    <path d="M55.841 29.462H53.587V13.339H55.841V15.133C56.6383 13.8297 57.8343 13.178 59.429 13.178C60.9623 13.178 62.1737 13.7377 63.063 14.857C63.9523 15.961 64.397 17.3717 64.397 19.089C64.397 20.8523 63.937 22.309 63.017 23.459C62.1123 24.5937 60.901 25.161 59.383 25.161C57.8343 25.161 56.6537 24.517 55.841 23.229V29.462ZM55.841 19.135C55.841 20.4843 56.1553 21.4963 56.784 22.171C57.428 22.8457 58.1563 23.183 58.969 23.183C59.8737 23.183 60.6173 22.8303 61.2 22.125C61.7827 21.4043 62.074 20.4 62.074 19.112C62.074 17.9007 61.7903 16.9423 61.223 16.237C60.6557 15.5163 59.935 15.156 59.061 15.156C58.187 15.156 57.428 15.478 56.784 16.122C56.1553 16.7507 55.841 17.755 55.841 19.135ZM75.6228 24.379C74.7641 24.8697 73.6295 25.115 72.2188 25.115C70.4095 25.115 68.9681 24.5707 67.8948 23.482C66.8215 22.3933 66.2848 20.9673 66.2848 19.204C66.2848 17.3333 66.7755 15.869 67.7568 14.811C68.7381 13.7377 69.9878 13.201 71.5058 13.201C72.9931 13.201 74.1738 13.6687 75.0478 14.604C75.9218 15.524 76.3588 16.858 76.3588 18.606C76.3588 19.0813 76.3128 19.5797 76.2208 20.101H68.5618C68.7151 21.113 69.1445 21.8873 69.8498 22.424C70.5551 22.9607 71.4445 23.229 72.5178 23.229C73.7598 23.229 74.7948 22.9377 75.6228 22.355V24.379ZM71.5518 15.064C70.7851 15.064 70.1258 15.3477 69.5738 15.915C69.0218 16.467 68.6768 17.272 68.5388 18.33H74.1738V17.916C74.1431 17.042 73.9055 16.352 73.4608 15.846C73.0161 15.3247 72.3798 15.064 71.5518 15.064ZM88.6498 25H86.3958V17.64C86.3958 16.8273 86.1888 16.2063 85.7748 15.777C85.3761 15.3477 84.8394 15.133 84.1648 15.133C83.3674 15.133 82.6851 15.4473 82.1178 16.076C81.5504 16.6893 81.2668 17.5557 81.2668 18.675V25H79.0128V13.339H81.2668V15.34C81.9568 13.8987 83.1681 13.178 84.9008 13.178C86.0508 13.178 86.9631 13.5307 87.6378 14.236C88.3124 14.9413 88.6498 15.8997 88.6498 17.111V25ZM98.9718 21.78C98.9718 22.8227 98.6038 23.643 97.8678 24.241C97.1318 24.8237 96.1351 25.115 94.8778 25.115C93.4978 25.115 92.3478 24.885 91.4278 24.425V22.286C92.5011 22.9453 93.6128 23.275 94.7628 23.275C95.3608 23.275 95.8208 23.1523 96.1428 22.907C96.4801 22.6617 96.6488 22.3397 96.6488 21.941C96.6488 21.6037 96.5184 21.3047 96.2578 21.044C95.9971 20.768 95.7288 20.5687 95.4528 20.446C95.1921 20.308 94.7398 20.101 94.0958 19.825C92.2711 19.0737 91.3588 17.9697 91.3588 16.513C91.3588 15.4857 91.7421 14.6807 92.5088 14.098C93.2754 13.5153 94.2338 13.224 95.3838 13.224C96.6411 13.224 97.6224 13.3927 98.3278 13.73V15.777C97.5764 15.3323 96.6104 15.11 95.4298 15.11C94.8931 15.11 94.4638 15.2327 94.1418 15.478C93.8351 15.7233 93.6818 16.0453 93.6818 16.444C93.6818 16.5513 93.6894 16.6587 93.7048 16.766C93.7354 16.858 93.7814 16.9577 93.8428 17.065C93.9041 17.157 93.9578 17.2413 94.0038 17.318C94.0651 17.3793 94.1571 17.4483 94.2798 17.525C94.4024 17.6017 94.4944 17.6707 94.5558 17.732C94.6324 17.778 94.7474 17.8393 94.9008 17.916C95.0694 17.9927 95.1921 18.054 95.2688 18.1C95.3454 18.1307 95.4758 18.192 95.6598 18.284C95.8591 18.3607 95.9971 18.4143 96.0738 18.445C96.9784 18.8437 97.6838 19.296 98.1898 19.802C98.7111 20.2927 98.9718 20.952 98.9718 21.78ZM110.01 24.379C109.152 24.8697 108.017 25.115 106.606 25.115C104.797 25.115 103.356 24.5707 102.282 23.482C101.209 22.3933 100.672 20.9673 100.672 19.204C100.672 17.3333 101.163 15.869 102.144 14.811C103.126 13.7377 104.375 13.201 105.893 13.201C107.381 13.201 108.561 13.6687 109.435 14.604C110.309 15.524 110.746 16.858 110.746 18.606C110.746 19.0813 110.7 19.5797 110.608 20.101H102.949C103.103 21.113 103.532 21.8873 104.237 22.424C104.943 22.9607 105.832 23.229 106.905 23.229C108.147 23.229 109.182 22.9377 110.01 22.355V24.379ZM105.939 15.064C105.173 15.064 104.513 15.3477 103.961 15.915C103.409 16.467 103.064 17.272 102.926 18.33H108.561V17.916C108.531 17.042 108.293 16.352 107.848 15.846C107.404 15.3247 106.767 15.064 105.939 15.064Z" fill="#292830"></path>
  </symbol>
  <symbol fill="none" xmlns="http://www.w3.org/2000/svg" viewBox="0 0 24 16" id="phone-link">
    <path d="M4 2H22V0H4C2.9 0 2 0.9 2 2V13H0V16H14V13H4V2ZM23 4H17C16.45 4 16 4.45 16 5V15C16 15.55 16.45 16 17 16H23C23.55 16 24 15.55 24 15V5C24 4.45 23.55 4 23 4ZM22 13H18V6H22V13Z" fill="#FFBD74"></path>
  </symbol>
</svg>